<?xml version="1.0" standalone="no"?>
<!DOCTYPE svg PUBLIC "-//W3C//DTD SVG 20010904//EN"
 "http://www.w3.org/TR/2001/REC-SVG-20010904/DTD/svg10.dtd">
<svg version="1.0" xmlns="http://www.w3.org/2000/svg"
 width="200.000000pt" height="201.000000pt" viewBox="0 0 200.000000 201.000000"
 preserveAspectRatio="xMidYMid meet">

<g transform="translate(0.000000,201.000000) scale(0.100000,-0.100000)"
fill="#000000" stroke="none">
<path d="M960 1829 c-41 -16 -90 -70 -101 -111 -29 -108 51 -208 164 -208 121
0 201 150 134 251 -40 61 -133 93 -197 68z"/>
<path d="M972 1397 c-20 -22 -22 -33 -22 -165 l0 -141 -396 -3 -396 -3 -24
-28 c-24 -28 -24 -32 -24 -221 0 -180 1 -195 21 -220 27 -34 86 -37 115 -5 17
18 19 40 22 170 l3 149 340 0 339 0 0 -145 c0 -132 2 -147 20 -165 27 -27 83
-27 110 0 18 18 20 33 20 165 l0 145 340 0 340 0 0 -144 c0 -130 2 -146 21
-170 27 -34 86 -37 115 -5 17 19 19 39 19 225 0 198 -1 204 -23 226 l-23 23
-394 3 -395 3 0 143 c0 136 -1 143 -23 164 -31 29 -77 29 -105 -1z"/>
<path d="M947 486 c-72 -26 -109 -79 -109 -157 0 -96 65 -159 162 -159 66 0
112 25 143 78 36 61 21 158 -31 205 -22 20 -86 46 -112 46 -8 0 -32 -6 -53
-13z"/>
<path d="M1788 488 c-47 -12 -105 -75 -114 -122 -9 -51 3 -101 33 -136 35 -42
73 -60 128 -60 145 0 216 162 119 269 -23 26 -48 42 -79 50 -24 6 -45 11 -47
10 -2 -1 -20 -6 -40 -11z"/>
</g>
</svg>
